<svg xmlns="http://www.w3.org/2000/svg" viewBox="0 0 128 89.07"><defs><style>.cls-1{fill:#7d7d7e;}.cls-2{fill:#f7f7f7;}.cls-3{fill:#e9e8e8;}.cls-4{fill:#f4f4f5;}.cls-5{fill:#db3e58;}.cls-6{fill:#377cc0;}</style></defs><title>mailto</title><g id="レイヤー_2" data-name="レイヤー 2"><g id="_5" data-name="5"><polygon class="cls-1" points="75.38 47.31 75.38 56.2 75.15 56.2 72.39 56.38 0 56.38 0 18.95 0.77 18.25 3.89 15.41 4.67 14.67 10.05 9.73 11.36 8.53 11.39 8.49 17.73 12.34 61.87 39.12 67.18 42.33 69.63 43.82 73.64 46.25 75.38 47.31"/><polygon class="cls-2" points="64.01 44.53 61.57 46.24 57.63 48.98 46.99 56.38 8.35 83.26 8.33 83.28 4.82 85.72 2.97 87.01 2.51 87.33 1.77 87.83 1.29 88.17 0 89.07 0 0 0.25 0.18 5 3.49 17.73 12.34 59.3 41.26 61.57 42.85 64.01 44.53"/><polygon class="cls-3" points="128 0.01 128 89.07 127.75 88.9 124.64 86.74 64 44.53 66.43 42.85 68.8 41.2 128 0.01"/><polygon class="cls-1" points="126.69 89.07 1.31 89.07 1.4 89 4.61 86.35 7.91 83.63 8.12 83.46 8.35 83.27 14.51 78.18 14.54 78.16 59.29 41.25 64 37.36 68.73 41.25 113.58 78.26 113.64 78.31 119.63 83.25 119.96 83.52 126.69 89.07"/><polygon class="cls-4" points="128 89.07 0 89.07 1.4 88.03 4.12 85.98 7.57 83.39 8.12 82.98 14.51 78.18 14.54 78.16 61.58 42.85 64 41.03 66.06 42.58 66.43 42.85 113.58 78.26 113.64 78.31 119.96 83.06 126.69 88.1 127.75 88.9 127.77 88.9 128 89.07"/><polygon class="cls-5" points="3.35 9.82 3.35 15.98 2.21 15.41 0 14.28 0 8.1 0.34 8.26 3.35 9.82"/><polygon class="cls-6" points="3.35 21.12 3.35 27.28 0 25.56 0 19.4 3.35 21.12"/><polygon class="cls-5" points="3.35 32.42 3.35 38.59 0 36.87 0 30.7 3.35 32.42"/><polygon class="cls-6" points="3.35 43.73 3.35 49.89 0 48.17 0 41.99 3.35 43.73"/><polygon class="cls-5" points="3.35 55.03 3.35 61.19 0 59.47 0 53.31 3.35 55.03"/><polygon class="cls-6" points="3.35 66.33 3.35 72.5 0 70.78 0 64.61 3.35 66.33"/><polygon class="cls-5" points="3.35 77.64 3.35 83.8 0 82.06 0 75.92 3.35 77.64"/><polygon class="cls-6" points="3.35 88.94 3.35 89.07 0.01 89.07 0.01 87.22 0.24 87.34 1.86 88.17 3.35 88.94"/><polygon class="cls-5" points="124.56 9.81 124.56 15.98 125.73 15.4 128 14.27 128 8.09 124.56 9.81"/><polygon class="cls-6" points="124.56 21.13 124.56 27.28 128 25.56 128 19.4 124.56 21.13"/><polygon class="cls-5" points="124.56 32.42 124.56 38.59 128 36.87 128 30.7 124.56 32.42"/><polygon class="cls-6" points="124.56 43.72 124.56 49.89 128 48.16 128 42 124.56 43.72"/><polygon class="cls-5" points="124.56 55.03 124.56 61.2 128 59.48 128 53.31 124.56 55.03"/><polygon class="cls-6" points="124.56 66.33 124.56 72.5 128 70.77 128 64.61 124.56 66.33"/><polygon class="cls-5" points="124.56 77.64 124.56 83.79 128 82.07 128 75.92 124.56 77.64"/><polygon class="cls-6" points="124.56 88.94 124.56 89.07 128 89.07 128 87.22 127.76 87.34 126.09 88.17 124.56 88.94"/><polygon class="cls-5" points="126.91 85.71 123.26 89.07 114.19 89.07 117.84 85.71 126.91 85.71"/><polygon class="cls-6" points="110.28 85.71 106.63 89.07 97.55 89.07 101.2 85.71 110.28 85.71"/><polygon class="cls-5" points="93.64 85.71 89.99 89.07 80.92 89.07 84.57 85.71 93.64 85.71"/><polygon class="cls-6" points="77.01 85.71 73.36 89.07 64.29 89.07 67.94 85.71 77.01 85.71"/><polygon class="cls-5" points="60.38 85.71 56.73 89.07 47.66 89.07 51.31 85.71 60.38 85.71"/><polygon class="cls-6" points="43.75 85.71 40.1 89.07 31.03 89.07 34.68 85.71 43.75 85.71"/><polygon class="cls-5" points="27.12 85.71 23.47 89.07 14.39 89.07 18.04 85.71 27.12 85.71"/><polygon class="cls-6" points="10.48 85.71 7.53 88.43 6.81 89.07 2.98 89.07 2.98 85.71 10.48 85.71"/><polygon class="cls-1" points="127.99 0 127.99 1.43 127.56 1.77 74.22 45.79 73.64 46.25 72.37 47.31 70.36 48.96 63.99 54.23 57.63 48.98 55.62 47.31 53.78 45.81 10.05 9.73 3.87 4.62 0 1.43 0 0 127.99 0"/><polygon class="cls-4" points="127.99 0 126.74 0.95 70.8 42.96 69.63 43.82 68.68 44.53 66.44 46.22 63.99 48.06 61.95 46.5 61.57 46.24 59.31 44.53 57.22 42.98 11.36 8.53 4.86 3.64 0.25 0.18 0.23 0.18 0 0 127.99 0"/></g></g></svg>